<svg width="25" height="25" viewBox="0 0 25 25" fill="none" xmlns="http://www.w3.org/2000/svg">
<path d="M12.7299 2.5C8.85992 2.5 5.72992 5.63 5.72992 9.5C5.72992 14.75 12.7299 22.5 12.7299 22.5C12.7299 22.5 19.7299 14.75 19.7299 9.5C19.7299 5.63 16.5999 2.5 12.7299 2.5ZM7.72992 9.5C7.72992 6.74 9.96992 4.5 12.7299 4.5C15.4899 4.5 17.7299 6.74 17.7299 9.5C17.7299 12.38 14.8499 16.69 12.7299 19.38C10.6499 16.71 7.72992 12.35 7.72992 9.5Z" fill="#333333"/>
<path d="M12.7299 12C13.393 12 14.0288 11.7366 14.4977 11.2678C14.9665 10.7989 15.2299 10.163 15.2299 9.5C15.2299 8.83696 14.9665 8.20107 14.4977 7.73223C14.0288 7.26339 13.393 7 12.7299 7C12.0669 7 11.431 7.26339 10.9622 7.73223C10.4933 8.20107 10.2299 8.83696 10.2299 9.5C10.2299 10.163 10.4933 10.7989 10.9622 11.2678C11.431 11.7366 12.0669 12 12.7299 12Z" fill="#333333"/>
</svg>
