<svg width="36" height="37" viewBox="0 0 36 37" fill="none" xmlns="http://www.w3.org/2000/svg">
<g id="share 1">
<g id="Group">
<path id="Vector" d="M27 24.5338C25.86 24.5338 24.84 24.9838 24.06 25.6888L13.365 19.4638C13.44 19.1188 13.5 18.7738 13.5 18.4138C13.5 18.0538 13.44 17.7088 13.365 17.3638L23.94 11.1988C24.75 11.9488 25.815 12.4138 27 12.4138C29.49 12.4138 31.5 10.4038 31.5 7.91382C31.5 5.42382 29.49 3.41382 27 3.41382C24.51 3.41382 22.5 5.42382 22.5 7.91382C22.5 8.27382 22.56 8.61882 22.635 8.96382L12.06 15.1288C11.25 14.3788 10.185 13.9138 9 13.9138C6.51 13.9138 4.5 15.9238 4.5 18.4138C4.5 20.9038 6.51 22.9138 9 22.9138C10.185 22.9138 11.25 22.4488 12.06 21.6988L22.74 27.9388C22.665 28.2538 22.62 28.5838 22.62 28.9138C22.62 31.3288 24.585 33.2938 27 33.2938C29.415 33.2938 31.38 31.3288 31.38 28.9138C31.38 26.4988 29.415 24.5338 27 24.5338ZM27 6.41382C27.825 6.41382 28.5 7.08882 28.5 7.91382C28.5 8.73882 27.825 9.41382 27 9.41382C26.175 9.41382 25.5 8.73882 25.5 7.91382C25.5 7.08882 26.175 6.41382 27 6.41382ZM9 19.9138C8.175 19.9138 7.5 19.2388 7.5 18.4138C7.5 17.5888 8.175 16.9138 9 16.9138C9.825 16.9138 10.5 17.5888 10.5 18.4138C10.5 19.2388 9.825 19.9138 9 19.9138ZM27 30.4438C26.175 30.4438 25.5 29.7688 25.5 28.9438C25.5 28.1188 26.175 27.4438 27 27.4438C27.825 27.4438 28.5 28.1188 28.5 28.9438C28.5 29.7688 27.825 30.4438 27 30.4438Z" fill="#333333"/>
</g>
</g>
</svg>
