<svg width="32" height="32" viewBox="0 0 32 32" fill="none" xmlns="http://www.w3.org/2000/svg">
<g id="x-twitter 1">
<path id="Vector" d="M24.0262 3.34146C24.2161 3.12446 24.4904 3 24.7788 3H26.5335C27.3927 3 27.8519 4.012 27.2861 4.65857L19.6362 13.3999C19.3239 13.7567 19.3052 14.2836 19.5912 14.6617L29.2247 27.3967C29.723 28.0554 29.2531 29 28.4272 29H22.0564C21.7451 29 21.4516 28.855 21.2624 28.6078L15.3488 20.8824C14.9648 20.3809 14.2179 20.3565 13.802 20.8318L6.95511 28.6584C6.76522 28.8755 6.49087 29 6.20247 29H4.44099C3.58188 29 3.12268 27.9882 3.68834 27.3416L12.0051 17.8345C12.3185 17.4763 12.336 16.9469 12.047 16.5688L2.90366 4.6073C2.40066 3.94926 2.86987 3 3.69813 3H10.2775C10.5909 3 10.8861 3.14689 11.0751 3.39684L16.3152 10.3263C16.6976 10.8319 17.4479 10.8587 17.8654 10.3817L24.0262 3.34146ZM22.4821 25.9794C22.6667 26.2209 22.9533 26.3625 23.2573 26.3625C24.0633 26.3625 24.5219 25.4408 24.0358 24.7979L9.74389 5.89687C9.55488 5.6469 9.25962 5.5 8.94625 5.5H8.84258C8.01419 5.5 7.54501 6.44951 8.04827 7.10751L22.4821 25.9794Z" fill="black"/>
</g>
</svg>
