<svg width="36" height="32" viewBox="0 0 36 32" fill="none" xmlns="http://www.w3.org/2000/svg">
<g id="youtube 1">
<path id="Vector" d="M33.387 8.01187L33.3871 8.01245C33.7137 9.23904 33.8896 11.21 33.9789 12.9458C34.0228 13.7988 34.0448 14.5703 34.0558 15.1287C34.0613 15.4076 34.064 15.6328 34.0654 15.7876C34.0661 15.8651 34.0664 15.9249 34.0666 15.965L34.0667 16.0102L34.0667 16.0212L34.0667 16.0237V16.0242V16.0248L34.0667 16.0273L34.0667 16.0383L34.0666 16.0835C34.0664 16.1236 34.0661 16.1834 34.0654 16.2609C34.064 16.4157 34.0613 16.6409 34.0558 16.9198C34.0448 17.4782 34.0228 18.2497 33.9789 19.1027C33.8896 20.8385 33.7137 22.8095 33.3871 24.0361L33.387 24.0366C33.0902 25.1542 32.2142 26.0103 31.0759 26.3165L31.0753 26.3166C30.5144 26.4679 29.4385 26.5983 28.0558 26.6998C26.7013 26.7993 25.1337 26.866 23.6398 26.9107C22.1475 26.9553 20.7368 26.9777 19.6986 26.9888C19.1798 26.9944 18.7545 26.9972 18.4592 26.9986C18.3115 26.9993 18.1964 26.9997 18.1183 26.9998L18.0297 27L18.0072 27L18.0017 27H18.0004H18.0001L18 28L18 27H17.9997H17.9984L17.9928 27L17.9704 27L17.8817 26.9998C17.8037 26.9997 17.6886 26.9993 17.5409 26.9986C17.2456 26.9972 16.8203 26.9944 16.3014 26.9888C15.2633 26.9777 13.8526 26.9553 12.3603 26.9107C10.8664 26.866 9.29874 26.7993 7.94428 26.6998C6.56154 26.5983 5.4857 26.4679 4.92473 26.3166L4.92413 26.3165C3.78591 26.0103 2.9099 25.1542 2.6131 24.0366L2.61294 24.0361C2.2864 22.8095 2.11052 20.8385 2.02118 19.1027C1.97728 18.2497 1.9553 17.4782 1.9443 16.9198C1.93881 16.6409 1.93607 16.4157 1.9347 16.2609C1.93402 16.1834 1.93368 16.1236 1.93351 16.0835L1.93337 16.0383L1.93335 16.0273L1.93335 16.0248L1.93335 16.0243V16.0243V16.0242V16.0242L1.93335 16.0237L1.93335 16.0212L1.93337 16.0102L1.93351 15.965C1.93368 15.9249 1.93402 15.8651 1.9347 15.7876C1.93607 15.6328 1.93881 15.4076 1.9443 15.1287C1.9553 14.5703 1.97728 13.7988 2.02118 12.9458C2.11052 11.21 2.2864 9.23904 2.61294 8.01245L2.6131 8.01187C2.91448 6.87706 3.80339 5.98509 4.92417 5.68353L4.92473 5.68338C5.4857 5.5321 6.56154 5.40169 7.94428 5.30017C9.29874 5.20073 10.8664 5.13396 12.3603 5.08929C13.8526 5.04467 15.2633 5.02233 16.3014 5.01116C16.8203 5.00557 17.2456 5.00278 17.5409 5.00139C17.6886 5.00069 17.8037 5.00035 17.8817 5.00017L17.9704 5.00002L17.9928 5L17.9984 5L17.9997 5H18L18 4L18.0001 5H18.0004L18.0017 5L18.0072 5L18.0297 5.00002L18.1183 5.00017C18.1964 5.00035 18.3115 5.00069 18.4592 5.00139C18.7545 5.00278 19.1798 5.00557 19.6987 5.01116C20.7368 5.02233 22.1475 5.04467 23.6398 5.08929C25.1337 5.13396 26.7014 5.20073 28.0558 5.30017C29.4386 5.40169 30.5144 5.5321 31.0753 5.68338L31.0759 5.68354C32.1967 5.98503 33.0856 6.87703 33.387 8.01187ZM13.5091 21.0994C13.5091 21.4556 13.6985 21.7848 14.0063 21.9639C14.3142 22.1429 14.694 22.1447 15.0036 21.9686L23.9248 16.8936C24.2373 16.7158 24.4303 16.3839 24.4303 16.0244C24.4303 15.6648 24.2373 15.333 23.9248 15.1552L15.0036 10.0799C14.694 9.90378 14.3142 9.90559 14.0063 10.0846C13.6985 10.2637 13.5091 10.5929 13.5091 10.9491V21.0994Z" stroke="black" stroke-width="2" stroke-linejoin="round"/>
</g>
</svg>
